<?xml version="1.0" encoding="UTF-8"?>
<svg xmlns="http://www.w3.org/2000/svg" xmlns:xlink="http://www.w3.org/1999/xlink" viewBox="0 0 48 48" width="48px" height="48px">
<g id="surface26777565">
<path style=" stroke:none;fill-rule:nonzero;fill:rgb(100%,100%,100%);fill-opacity:1;" d="M 21 6.75 C 20.171875 6.75 19.5 7.421875 19.5 8.25 L 19.5 9 L 10.5 9 C 9.671875 9 9 9.671875 9 10.5 C 9 11.328125 9.671875 12 10.5 12 L 37.5 12 C 38.328125 12 39 11.328125 39 10.5 C 39 9.671875 38.328125 9 37.5 9 L 28.5 9 L 28.5 8.25 C 28.5 7.421875 27.828125 6.75 27 6.75 Z M 11.25 13.5 L 11.25 34.5 C 11.25 36.980469 13.269531 39 15.75 39 L 32.25 39 C 34.730469 39 36.75 36.980469 36.75 34.5 L 36.75 13.5 Z M 16.875 16.5 C 17.496094 16.5 18 17.003906 18 17.625 L 18 33.375 C 18 33.996094 17.496094 34.5 16.875 34.5 C 16.253906 34.5 15.75 33.996094 15.75 33.375 L 15.75 17.625 C 15.75 17.003906 16.253906 16.5 16.875 16.5 Z M 24 16.5 C 24.828125 16.5 25.5 17.171875 25.5 18 L 25.5 33 C 25.5 33.828125 24.828125 34.5 24 34.5 C 23.171875 34.5 22.5 33.828125 22.5 33 L 22.5 18 C 22.5 17.171875 23.171875 16.5 24 16.5 Z M 31.125 16.5 C 31.746094 16.5 32.25 17.003906 32.25 17.625 L 32.25 33.375 C 32.25 33.996094 31.746094 34.5 31.125 34.5 C 30.503906 34.5 30 33.996094 30 33.375 L 30 17.625 C 30 17.003906 30.503906 16.5 31.125 16.5 Z M 31.125 16.5 "/>
</g>
</svg>
